<?xml version="1.0" encoding="UTF-8"?>
<svg id="Layer_2" data-name="Layer 2" xmlns="http://www.w3.org/2000/svg" viewBox="0 0 20 18.65">
  <defs>
    <style>
      .cls-1 {
        fill: #fff;
        stroke-width: 0px;
      }
    </style>
  </defs>
  <g id="PRODUCT">
    <g>
      <path class="cls-1" d="m19.31,0h-3.66c-.34,0-.62.24-.68.57l-.43,2.48h-1.52c-.38,0-.69.31-.69.69s.31.69.69.69h1.28,0s-.54,3.16-.54,3.16c0,0,0,0,0,0l-.76,4.44H2.81l-1.3-7.6h1.31c.38,0,.69-.31.69-.69s-.31-.69-.69-.69H.69c-.2,0-.4.09-.53.24-.13.16-.19.36-.15.56l1.54,8.97s0,0,0,.01c0,.01,0,.02,0,.03,0,.01,0,.02,0,.03,0,.01,0,.02,0,.03,0,.01,0,.02.01.03,0,0,0,.02.01.03,0,.01,0,.02.02.03,0,0,0,.02.01.02,0,.01.01.02.02.03,0,0,0,.01.01.02,0,.01.02.02.03.04,0,0,0,0,.01.01.01.02.03.03.04.05,0,0,0,0,0,0,.01.01.03.03.04.04,0,0,.01,0,.02.01.01,0,.02.02.03.02,0,0,.02.01.02.02,0,0,.02.01.03.02,0,0,.02,0,.03.01,0,0,.02,0,.03.01,0,0,.02,0,.03.01.01,0,.02,0,.03.01,0,0,.02,0,.03,0,.01,0,.02,0,.03,0,0,0,.02,0,.03,0,.01,0,.03,0,.04,0,0,0,.02,0,.02,0,.02,0,.04,0,.07,0h11.4c.45,0,.81.36.81.81s-.36.81-.81.81H3.35s-.05,0-.07,0c-.97.04-1.74.83-1.74,1.81s.81,1.81,1.81,1.81,1.81-.81,1.81-1.81c0-.15-.02-.29-.05-.43h6.3c-.03.14-.05.28-.05.43,0,1,.81,1.81,1.81,1.81s1.81-.81,1.81-1.81c0-.28-.06-.54-.18-.77.61-.39,1.02-1.07,1.02-1.85,0-.94-.6-1.75-1.44-2.05l1.43-8.3s0,0,0,0l.43-2.48h3.08c.38,0,.69-.31.69-.69s-.31-.69-.69-.69ZM3.78,16.84c0,.24-.19.43-.43.43s-.43-.19-.43-.43.19-.43.43-.43.43.19.43.43Zm9.38.43c-.24,0-.43-.19-.43-.43s.19-.43.43-.43.43.19.43.43-.19.43-.43.43Z"/>
      <path class="cls-1" d="m7.42,10.31s0,0,0,0c.01.01.03.03.04.04,0,0,0,0,.01.01.01.01.03.02.04.03,0,0,0,0,.01,0,.02,0,.03.02.05.03,0,0,0,0,0,0,.02,0,.03.02.05.02,0,0,0,0,0,0,.02,0,.04.01.06.02,0,0,0,0,0,0,.02,0,.04.01.06.01,0,0,.01,0,.02,0,.02,0,.03,0,.05,0,.02,0,.05,0,.07,0s.05,0,.07,0c.02,0,.03,0,.05,0,0,0,.01,0,.02,0,.02,0,.04,0,.06-.01,0,0,0,0,0,0,.02,0,.04-.01.06-.02,0,0,0,0,0,0,.02,0,.04-.02.05-.02,0,0,0,0,0,0,.02,0,.03-.02.05-.03,0,0,0,0,.01,0,.01,0,.03-.02.04-.03,0,0,0,0,.01-.01.02-.01.03-.03.04-.04,0,0,0,0,0,0l2.31-2.31c.27-.27.27-.71,0-.97-.27-.27-.71-.27-.97,0l-1.14,1.14V3.75c0-.38-.31-.69-.69-.69s-.69.31-.69.69v4.42l-1.14-1.14c-.27-.27-.71-.27-.97,0-.27.27-.27.71,0,.97l2.31,2.31Z"/>
    </g>
  </g>
</svg>