<?xml version="1.0" encoding="UTF-8"?>
<svg id="Layer_2" data-name="Layer 2" xmlns="http://www.w3.org/2000/svg" viewBox="0 0 20 17.56">
  <defs>
    <style>
      .cls-1 {
        fill: #fff;
        stroke-width: 0px;
      }
    </style>
  </defs>
  <g id="PRODUCT">
    <path class="cls-1" d="m10,17.56c-.23,0-.44-.09-.6-.25L1.56,9.31C-.53,7.18-.52,3.72,1.6,1.6,3.73-.53,7.21-.53,9.35,1.6l.65.65.65-.65c2.14-2.14,5.61-2.14,7.75,0h0c2.12,2.12,2.13,5.58.04,7.71l-7.84,8c-.16.16-.37.25-.6.25ZM5.47,1.67c-.97,0-1.95.37-2.69,1.11-1.47,1.47-1.48,3.87-.03,5.35l7.24,7.39,7.24-7.39c1.45-1.48,1.44-3.88-.03-5.35-1.48-1.48-3.9-1.48-5.38,0l-1.24,1.24c-.33.33-.86.33-1.18,0l-1.24-1.24c-.74-.74-1.72-1.11-2.69-1.11Z"/>
  </g>
</svg>