<?xml version="1.0" encoding="UTF-8"?>
<svg id="Layer_2" data-name="Layer 2" xmlns="http://www.w3.org/2000/svg" viewBox="0 0 152.9 65">
  <defs>
    <style>
      .cls-1 {
        fill: #ffffff;
        stroke-width: 0px;
      }
    </style>
  </defs>
  <g id="NAVBAR">
    <g>
      <path class="cls-1" d="m32.24,28.18c-1.14,0-2.12-.19-2.93-.56-.81-.37-1.44-.92-1.89-1.64s-.7-1.61-.75-2.68c-.01-.49-.02-1.02-.02-1.58s0-1.1.02-1.62c.05-1.04.3-1.93.76-2.66.46-.73,1.09-1.28,1.91-1.66.82-.38,1.78-.57,2.9-.57.79,0,1.52.1,2.2.3.67.2,1.26.49,1.76.86.5.38.9.83,1.18,1.37.28.53.43,1.14.44,1.81.01.11-.02.2-.1.27-.08.07-.17.11-.28.11h-2.43c-.16,0-.28-.03-.36-.1-.08-.07-.16-.19-.22-.37-.17-.64-.44-1.07-.82-1.31-.38-.23-.84-.35-1.4-.35-.66,0-1.18.18-1.57.55-.38.37-.59.98-.63,1.83-.04.98-.04,1.99,0,3.02.04.85.25,1.46.63,1.83.38.37.91.55,1.57.55.55,0,1.02-.12,1.4-.36.38-.24.65-.67.81-1.3.05-.18.12-.3.21-.37.09-.07.21-.1.37-.1h2.43c.11,0,.2.04.28.11.08.07.11.16.1.27-.01.67-.16,1.28-.44,1.81-.28.53-.68.99-1.18,1.37-.5.38-1.09.67-1.76.86-.67.2-1.4.3-2.2.3Z"/>
      <path class="cls-1" d="m52.97,28c-.13,0-.24-.04-.32-.13-.08-.08-.13-.19-.13-.32v-11.7c0-.13.04-.24.13-.32.08-.08.19-.13.32-.13h4.68c1.18,0,2.18.19,3.01.57.83.38,1.46.93,1.91,1.66.44.73.68,1.62.72,2.69.01.53.02.99.02,1.39s0,.85-.02,1.37c-.05,1.12-.29,2.04-.71,2.77-.43.73-1.04,1.28-1.85,1.63-.81.35-1.8.53-2.98.53h-4.77Zm2.77-2.59h1.91c.52,0,.95-.08,1.29-.24.34-.16.6-.42.77-.77.17-.35.27-.8.28-1.37.02-.35.04-.66.04-.94,0-.28,0-.55,0-.83,0-.28-.02-.58-.04-.92-.02-.82-.24-1.41-.64-1.79-.4-.38-1-.57-1.79-.57h-1.82v7.42Z"/>
      <path class="cls-1" d="m65.86,28c-.13,0-.24-.04-.32-.13-.08-.08-.13-.19-.13-.32v-11.7c0-.13.04-.24.13-.32.08-.08.19-.13.32-.13h8.41c.13,0,.24.04.32.13.08.08.13.19.13.32v1.69c0,.13-.04.24-.13.32-.08.08-.19.13-.32.13h-5.74v2.43h5.35c.13,0,.24.04.32.13.08.09.13.2.13.33v1.57c0,.12-.04.23-.13.31-.08.09-.19.14-.32.14h-5.35v2.5h5.89c.13,0,.24.04.32.13.08.08.13.19.13.32v1.69c0,.13-.04.24-.13.32-.08.08-.19.13-.32.13h-8.55Z"/>
      <path class="cls-1" d="m77.08,28c-.13,0-.24-.04-.32-.13-.08-.08-.13-.19-.13-.32v-2.29c0-.12.04-.23.13-.32.08-.09.19-.13.32-.13h2.27c.13,0,.24.04.33.13.09.09.13.2.13.32v2.29c0,.13-.04.24-.13.32-.09.08-.2.13-.33.13h-2.27Z"/>
      <path class="cls-1" d="m32.24,49.78c-1.14,0-2.12-.19-2.93-.56-.81-.37-1.44-.92-1.89-1.64s-.7-1.61-.75-2.68c-.01-.49-.02-1.02-.02-1.58s0-1.1.02-1.62c.05-1.04.3-1.93.76-2.66.46-.73,1.09-1.28,1.91-1.66.82-.38,1.78-.57,2.9-.57.79,0,1.52.1,2.2.3.67.2,1.26.49,1.76.86.5.38.9.83,1.18,1.37.28.53.43,1.14.44,1.81.01.11-.02.2-.1.27-.08.07-.17.11-.28.11h-2.43c-.16,0-.28-.03-.36-.1-.08-.07-.16-.19-.22-.37-.17-.64-.44-1.07-.82-1.31-.38-.23-.84-.35-1.4-.35-.66,0-1.18.18-1.57.55-.38.37-.59.98-.63,1.83-.04.98-.04,1.99,0,3.02.04.85.25,1.46.63,1.83.38.37.91.55,1.57.55.55,0,1.02-.12,1.4-.36.38-.24.65-.67.81-1.3.05-.18.12-.3.21-.37.09-.07.21-.1.37-.1h2.43c.11,0,.2.04.28.11.08.07.11.16.1.27-.01.67-.16,1.28-.44,1.81-.28.53-.68.99-1.18,1.37-.5.38-1.09.67-1.76.86-.67.2-1.4.3-2.2.3Z"/>
      <path class="cls-1" d="m40.16,49.6c-.13,0-.24-.04-.32-.13-.08-.08-.13-.19-.13-.32v-11.7c0-.13.04-.24.13-.32.08-.08.19-.13.32-.13h4.9c1.55,0,2.77.36,3.66,1.07.89.71,1.34,1.73,1.34,3.03,0,.85-.21,1.57-.62,2.16-.41.59-.96,1.03-1.63,1.33l2.48,4.43c.04.07.05.14.05.2,0,.1-.04.18-.12.26-.08.08-.17.12-.28.12h-2.38c-.23,0-.4-.06-.5-.17-.11-.11-.19-.22-.23-.31l-2.05-3.96h-1.85v4c0,.13-.04.24-.13.32s-.19.13-.32.13h-2.32Zm2.77-6.99h2.09c.56,0,.99-.14,1.27-.41.28-.28.42-.65.42-1.13s-.13-.85-.4-1.13c-.27-.29-.7-.43-1.29-.43h-2.09v3.11Z"/>
      <path class="cls-1" d="m51.43,49.6c-.1,0-.18-.04-.26-.12-.08-.08-.12-.16-.12-.26,0-.06,0-.11.02-.16l4.23-11.56c.04-.13.11-.25.23-.35.11-.1.27-.15.48-.15h2.66c.2,0,.36.05.48.15.11.1.19.22.23.35l4.21,11.56s.04.1.04.16c0,.1-.04.18-.12.26-.08.08-.17.12-.28.12h-2.21c-.18,0-.31-.04-.4-.14-.09-.09-.15-.17-.17-.24l-.7-1.84h-4.81l-.68,1.84c-.02.07-.08.15-.16.24-.08.09-.23.14-.43.14h-2.21Zm4.23-4.81h3.35l-1.69-4.75-1.66,4.75Z"/>
      <path class="cls-1" d="m65.49,49.6c-.13,0-.24-.04-.32-.13-.08-.08-.13-.19-.13-.32v-11.7c0-.13.04-.24.13-.32.08-.08.19-.13.32-.13h8.26c.13,0,.24.04.33.13.09.08.13.19.13.32v1.82c0,.13-.05.24-.13.32-.09.08-.2.13-.33.13h-5.54v2.65h5.18c.13,0,.24.04.33.13.09.09.14.2.14.33v1.8c0,.12-.05.23-.14.32-.09.09-.2.13-.33.13h-5.18v4.07c0,.13-.04.24-.13.32s-.19.13-.32.13h-2.27Z"/>
      <path class="cls-1" d="m79.37,49.6c-.13,0-.24-.04-.32-.13-.08-.08-.13-.19-.13-.32v-9.33h-3.2c-.13,0-.24-.04-.32-.14-.08-.09-.13-.19-.13-.31v-1.93c0-.13.04-.24.13-.32s.19-.13.32-.13h9.69c.13,0,.24.04.32.13.08.08.13.19.13.32v1.93c0,.12-.04.23-.13.31-.08.09-.19.14-.32.14h-3.2v9.33c0,.13-.04.24-.13.32s-.19.13-.32.13h-2.38Z"/>
      <path class="cls-1" d="m87.94,49.6c-.13,0-.24-.04-.32-.13-.08-.08-.13-.19-.13-.32v-11.7c0-.13.04-.24.13-.32s.19-.13.32-.13h8.41c.13,0,.24.04.32.13.08.08.13.19.13.32v1.69c0,.13-.04.24-.13.32-.08.08-.19.13-.32.13h-5.74v2.43h5.35c.13,0,.24.04.32.13.08.09.13.2.13.33v1.57c0,.12-.04.23-.13.31s-.19.14-.32.14h-5.35v2.5h5.89c.13,0,.24.04.32.13.08.08.13.19.13.32v1.69c0,.13-.04.24-.13.32s-.19.13-.32.13h-8.55Z"/>
      <path class="cls-1" d="m99.44,49.6c-.13,0-.24-.04-.32-.13-.08-.08-.13-.19-.13-.32v-11.7c0-.13.04-.24.13-.32s.19-.13.32-.13h4.9c1.55,0,2.77.36,3.66,1.07.89.71,1.34,1.73,1.34,3.03,0,.85-.21,1.57-.62,2.16-.41.59-.96,1.03-1.63,1.33l2.48,4.43c.04.07.05.14.05.2,0,.1-.04.18-.12.26-.08.08-.17.12-.28.12h-2.38c-.23,0-.4-.06-.5-.17-.11-.11-.19-.22-.23-.31l-2.05-3.96h-1.85v4c0,.13-.04.24-.13.32-.08.08-.19.13-.32.13h-2.32Zm2.77-6.99h2.09c.56,0,.99-.14,1.27-.41.28-.28.42-.65.42-1.13s-.13-.85-.41-1.13c-.27-.29-.7-.43-1.29-.43h-2.09v3.11Z"/>
      <path class="cls-1" d="m116.13,49.78c-1.2,0-2.2-.17-2.99-.51s-1.39-.79-1.8-1.34c-.41-.55-.62-1.14-.65-1.76,0-.1.04-.18.12-.26.08-.08.17-.12.28-.12h2.27c.17,0,.3.03.39.09.09.06.17.14.24.23.1.18.23.35.41.52.17.17.4.3.68.41.28.1.63.15,1.05.15.7,0,1.22-.11,1.58-.32.35-.22.53-.51.53-.88,0-.26-.1-.48-.29-.66-.19-.17-.5-.33-.93-.47-.43-.14-.99-.28-1.7-.42-.91-.19-1.69-.44-2.33-.75-.64-.31-1.13-.71-1.47-1.21-.34-.5-.5-1.12-.5-1.86s.21-1.39.62-1.96c.41-.58.99-1.03,1.74-1.35.74-.32,1.63-.49,2.65-.49.83,0,1.56.11,2.19.32.63.22,1.16.5,1.59.86.43.36.76.74.98,1.14s.34.8.35,1.18c0,.1-.04.18-.11.26-.07.08-.16.12-.27.12h-2.38c-.13,0-.25-.02-.34-.07-.1-.05-.18-.13-.25-.23-.07-.26-.26-.5-.57-.69-.31-.2-.71-.3-1.2-.3-.53,0-.94.09-1.23.28-.29.19-.44.47-.44.86,0,.24.08.45.24.63.16.18.43.34.81.47.38.13.9.27,1.56.41,1.09.2,1.97.46,2.65.77.67.31,1.16.7,1.48,1.19.31.49.47,1.1.47,1.83,0,.82-.23,1.52-.69,2.12-.46.59-1.1,1.05-1.92,1.36-.82.31-1.75.47-2.81.47Z"/>
      <path class="cls-1" d="m123.51,49.6c-.13,0-.24-.04-.32-.13-.08-.08-.13-.19-.13-.32v-2.29c0-.12.04-.23.13-.32.08-.09.19-.13.32-.13h2.27c.13,0,.24.04.33.13s.14.2.14.32v2.29c0,.13-.04.24-.14.32-.09.08-.2.13-.33.13h-2.27Z"/>
      <g>
        <path class="cls-1" d="m41.88,22.12l-.15-.05-.67.86.36.06s.05,0,.07.02c.2.05.37.19.48.37.11.18.13.39.08.6-.05.2-.19.37-.37.48-.18.11-.39.13-.6.08-.2-.05-.37-.19-.48-.37-.08-.14-.11-.29-.1-.44.02-.25.12-.38.28-.59l1.8-2.31c.06-.08.13-.16.18-.25l.04-.06c.23-.4.3-.88.17-1.33-.12-.45-.41-.83-.81-1.06-.41-.23-.88-.3-1.33-.18-.4.11-.75.35-.99.7l-.08.12c-.23.41-.3.88-.18,1.33.12.45.41.83.82,1.06.09.05.19.1.28.13l.15.05.67-.86-.36-.06c-.09-.02-.18-.05-.26-.09-.18-.11-.31-.28-.37-.48-.05-.2-.03-.42.08-.6.11-.18.28-.31.48-.37.2-.05.42-.03.6.08.18.11.31.28.37.48.05.2.03.42-.08.6-.03.06-.08.12-.13.18l-1.8,2.31c-.22.29-.46.63-.49,1.14-.02.34.06.68.23.98.23.4.61.69,1.06.82.15.04.3.06.46.06.3,0,.6-.08.87-.24.4-.23.69-.61.82-1.06.12-.45.06-.92-.17-1.33-.21-.36-.54-.63-.92-.77Z"/>
        <path class="cls-1" d="m44.86,19.32c.41,0,.82-.15,1.13-.41l.12-.1-.41-1.01-.23.28s-.03.04-.05.06c-.3.3-.82.3-1.12,0-.15-.15-.23-.35-.23-.56s.08-.41.23-.56c.26-.26.69-.3.99-.1.21.14.27.3.37.54l1.1,2.71c.04.1.08.19.13.29l.03.05c.23.4.61.69,1.06.82.15.04.3.06.45.06.77,0,1.48-.52,1.69-1.3.11-.4.07-.83-.11-1.2l-.07-.12c-.23-.41-.61-.7-1.06-.82-.45-.12-.92-.06-1.33.18-.09.05-.18.11-.26.18l-.12.1.41,1.01.23-.28c.06-.07.13-.13.21-.18.18-.11.4-.13.6-.08.2.05.37.18.48.37.11.18.13.4.08.6-.05.2-.19.37-.37.48-.18.11-.39.13-.6.08-.2-.05-.37-.19-.48-.37v-.02c-.04-.06-.07-.12-.09-.19l-1.1-2.71c-.14-.34-.32-.72-.74-1-.29-.19-.62-.29-.96-.29-.47,0-.91.18-1.24.51-.33.33-.51.77-.51,1.24s.18.91.51,1.24c.33.33.77.51,1.24.51Z"/>
        <path class="cls-1" d="m50.13,23.31c-.12-.45-.41-.83-.82-1.06s-.88-.3-1.33-.17c-.45.12-.83.41-1.06.82-.21.36-.28.78-.21,1.19l.03.15,1.08.15-.13-.34s-.02-.05-.02-.07c-.05-.2-.03-.42.08-.6.11-.18.28-.31.48-.37.2-.05.42-.03.6.08.18.11.31.28.37.48.05.2.03.42-.08.6-.08.14-.19.24-.33.31-.22.11-.39.09-.65.05l-2.9-.4c-.11-.02-.21-.03-.33-.03h-.05c-.47,0-.91.18-1.24.51-.33.33-.51.77-.51,1.24,0,.47.18.91.51,1.24.29.29.68.47,1.1.51h.14c.47,0,.91-.18,1.24-.51.33-.33.51-.77.51-1.24,0-.1,0-.21-.03-.31l-.03-.15-1.08-.15.13.34c.03.09.05.18.05.27,0,.21-.08.41-.23.56-.3.3-.82.3-1.12,0-.15-.15-.23-.35-.23-.56,0-.21.08-.41.23-.56.15-.15.35-.23.56-.23.07,0,.15.01.23.02l2.9.4c.36.05.78.08,1.23-.14.31-.15.56-.39.73-.69.23-.4.3-.88.17-1.33Z"/>
        <path class="cls-1" d="m44.86,23.45c.47,0,.91-.18,1.24-.51s.51-.77.51-1.24-.18-.91-.51-1.24c-.33-.33-.77-.51-1.24-.51s-.91.18-1.24.51c-.33.33-.51.77-.51,1.24s.18.91.51,1.24c.33.33.77.51,1.24.51Zm-.79-1.75c0-.21.08-.41.23-.56s.35-.23.56-.23.41.08.56.23.23.35.23.56-.08.41-.23.56c-.3.3-.82.3-1.12,0-.15-.15-.23-.35-.23-.56Z"/>
      </g>
      <path class="cls-1" d="m16.71,50.65v3.32c0,1.49.09,1.91,2.1,1.91h7.84v9.12h-7.84c-6.82,0-11.22-4.33-11.22-11.03v-8.91c0-6.38-1.81-7.43-4.36-8.2-1.92-.58-3.23-2.35-3.23-4.36s1.31-3.78,3.23-4.36c2.55-.77,4.36-1.82,4.36-8.21v-8.91C7.59,4.33,12,0,18.81,0h7.84v9.12h-7.84c-2,0-2.1.49-2.1,1.91v8.91c0,3.92-.5,8.85-3.74,12.57,2.33,2.68,3.24,5.99,3.57,9.1l.17,9.05Z"/>
      <path class="cls-1" d="m136.19,50.65v3.32c0,1.49-.09,1.91-2.1,1.91h-7.84v9.12h7.84c6.82,0,11.22-4.33,11.22-11.03v-8.91c0-6.38,1.81-7.43,4.36-8.2,1.92-.58,3.23-2.35,3.23-4.36s-1.31-3.78-3.23-4.36c-2.55-.77-4.36-1.82-4.36-8.21v-8.91c0-6.7-4.4-11.03-11.22-11.03h-7.84v9.12h7.84c2,0,2.1.49,2.1,1.91v8.91c0,3.92.5,8.85,3.74,12.57-2.33,2.68-3.24,5.99-3.57,9.1l-.17,9.05Z"/>
    </g>
  </g>
</svg>